<svg preserveAspectRatio="none" width="100%" height="100%" overflow="visible" style="display: block;" viewBox="0 0 69 83" fill="none" xmlns="http://www.w3.org/2000/svg">
<path id="Vector" d="M27.3767 56.0246C27.0687 54.5885 26.4464 53.2778 25.5745 52.2291C24.7026 51.1803 23.6131 50.4317 22.4192 50.0612L1.25396 43.4961C0.892858 43.3728 0.575045 43.1112 0.348743 42.751C0.122441 42.3907 0 41.9515 0 41.5C0 41.0485 0.122441 40.6093 0.348743 40.249C0.575045 39.8888 0.892858 39.6272 1.25396 39.5039L22.4192 32.9346C23.6126 32.5645 24.7019 31.8165 25.5738 30.7685C26.4456 29.7205 27.0681 28.4108 27.3767 26.9754L32.8344 1.51575C32.9359 1.07967 33.1531 0.695484 33.4531 0.421811C33.753 0.148137 34.1191 0 34.4956 0C34.872 0 35.2381 0.148137 35.538 0.421811C35.838 0.695484 36.0552 1.07967 36.1567 1.51575L41.611 26.9754C41.919 28.4115 42.5413 29.7222 43.4132 30.7709C44.285 31.8197 45.3746 32.5683 46.5685 32.9388L67.7337 39.4997C68.0977 39.6205 68.4186 39.8816 68.6474 40.2429C68.8761 40.6042 69 41.0458 69 41.5C69 41.9542 68.8761 42.3958 68.6474 42.7571C68.4186 43.1184 68.0977 43.3795 67.7337 43.5002L46.5685 50.0612C45.3746 50.4317 44.285 51.1803 43.4132 52.2291C42.5413 53.2778 41.919 54.5885 41.611 56.0246L36.1532 81.4842C36.0518 81.9203 35.8345 82.3045 35.5346 82.5782C35.2347 82.8519 34.8686 83 34.4921 83C34.1157 83 33.7495 82.8519 33.4496 82.5782C33.1497 82.3045 32.9324 81.9203 32.831 81.4842L27.3767 56.0246Z" fill="var(--fill-0, #FF6B00)"/>
</svg>
